<svg width="32" height="32" viewBox="0 0 32 32" fill="none" xmlns="http://www.w3.org/2000/svg">
<path d="M21.6875 15.75C21.6875 16.2422 21.4141 16.6523 21.0312 16.8984C20.6211 17.1445 20.1016 17.1445 19.7188 16.8984C19.3086 16.6523 19.0625 16.2422 19.0625 15.75C19.0625 15.2852 19.3086 14.875 19.7188 14.6289C20.1016 14.3828 20.6211 14.3828 21.0312 14.6289C21.4141 14.875 21.6875 15.2852 21.6875 15.75ZM17.3125 15.75C17.3125 16.2422 17.0391 16.6523 16.6562 16.8984C16.2461 17.1445 15.7266 17.1445 15.3438 16.8984C14.9336 16.6523 14.6875 16.2422 14.6875 15.75C14.6875 15.2852 14.9336 14.875 15.3438 14.6289C15.7266 14.3828 16.2461 14.3828 16.6562 14.6289C17.0391 14.875 17.3125 15.2852 17.3125 15.75ZM11.625 17.0625C11.1328 17.0625 10.7227 16.8164 10.4766 16.4062C10.2305 16.0234 10.2305 15.5039 10.4766 15.0938C10.7227 14.7109 11.1328 14.4375 11.625 14.4375C12.0898 14.4375 12.5 14.7109 12.7461 15.0938C12.9922 15.5039 12.9922 16.0234 12.7461 16.4062C12.5 16.8164 12.0898 17.0625 11.625 17.0625Z" fill="currentColor"/>
</svg>
