<svg width="32" height="32" viewBox="0 0 32 32" fill="none" xmlns="http://www.w3.org/2000/svg">
<path d="M16.6562 10.7188V15.0938H21.0312C21.3867 15.0938 21.6875 15.3945 21.6875 15.75C21.6875 16.1328 21.3867 16.4062 21.0312 16.4062H16.6562V20.7812C16.6562 21.1641 16.3555 21.4375 16 21.4375C15.6172 21.4375 15.3438 21.1641 15.3438 20.7812V16.4062H10.9688C10.5859 16.4062 10.3125 16.1328 10.3125 15.75C10.3125 15.3945 10.5859 15.0938 10.9688 15.0938H15.3438V10.7188C15.3438 10.3633 15.6172 10.0625 16 10.0625C16.3555 10.0625 16.6562 10.3633 16.6562 10.7188Z" fill="currentColor"/>
</svg>
