<svg width="32" height="32" viewBox="0 0 32 32" fill="none" xmlns="http://www.w3.org/2000/svg">
<path d="M17.3125 9.40625C17.3125 9.05078 17.5859 8.75 17.9688 8.75H22.3164C22.6992 8.75 22.9727 9.05078 22.9727 9.40625V13.7812C22.9727 14.1641 22.6992 14.4375 22.3164 14.4375C21.9609 14.4375 21.6602 14.1641 21.6602 13.7812V10.9922L15.5625 17.0898C15.3164 17.3633 14.9062 17.3633 14.6602 17.0898C14.3867 16.8438 14.3867 16.4336 14.6602 16.1602L20.7578 10.0625H17.9688C17.5859 10.0625 17.3125 9.78906 17.3125 9.40625ZM10.9688 9.625H14.4688C14.8242 9.625 15.125 9.92578 15.125 10.2812C15.125 10.6641 14.8242 10.9375 14.4688 10.9375H10.9688C10.5859 10.9375 10.3125 11.2383 10.3125 11.5938V20.7812C10.3125 21.1641 10.5859 21.4375 10.9688 21.4375H20.1562C20.5117 21.4375 20.8125 21.1641 20.8125 20.7812V17.2812C20.8125 16.9258 21.0859 16.625 21.4688 16.625C21.8242 16.625 22.125 16.9258 22.125 17.2812V20.7812C22.125 21.875 21.2227 22.75 20.1562 22.75H10.9688C9.875 22.75 9 21.875 9 20.7812V11.5938C9 10.5273 9.875 9.625 10.9688 9.625Z" fill="currentColor"/>
</svg>
