<svg width="32" height="32" viewBox="0 0 32 32" fill="none" xmlns="http://www.w3.org/2000/svg">
<path d="M21.0586 10.3633H21.0312C20.7852 10.1172 20.375 10.1172 20.1289 10.3633L19.3086 11.1562L20.5938 12.4414L21.3867 11.6211C21.6328 11.375 21.6328 10.9648 21.3867 10.6914L21.0586 10.3633ZM14.7148 15.7773C14.6328 15.832 14.5781 15.9414 14.5508 16.0508L14.0859 17.6367L15.6992 17.1992C15.8086 17.1719 15.8906 17.1172 15.9727 17.0352L19.6641 13.3438L18.4062 12.0859L14.7148 15.7773ZM19.1992 9.43359C19.9648 8.66797 21.1953 8.66797 21.9609 9.43359L22.3164 9.78906C23.082 10.5547 23.082 11.7852 22.3164 12.5508L16.9023 17.9648C16.6836 18.1836 16.3828 18.3477 16.0547 18.457L13.3203 19.2227C13.1016 19.3047 12.8555 19.25 12.6914 19.0586C12.5 18.8945 12.4453 18.6484 12.5 18.4297L13.293 15.6953C13.375 15.3672 13.5664 15.0664 13.7852 14.8477L19.1992 9.43359ZM11.4062 10.5H14.4688C14.8242 10.5 15.125 10.8008 15.125 11.1562C15.125 11.5391 14.8242 11.8125 14.4688 11.8125H11.4062C10.7773 11.8125 10.3125 12.3047 10.3125 12.9062V20.3438C10.3125 20.9727 10.7773 21.4375 11.4062 21.4375H18.8438C19.4453 21.4375 19.9375 20.9727 19.9375 20.3438V17.2812C19.9375 16.9258 20.2109 16.625 20.5938 16.625C20.9492 16.625 21.25 16.9258 21.25 17.2812V20.3438C21.25 21.6836 20.1562 22.75 18.8438 22.75H11.4062C10.0664 22.75 9 21.6836 9 20.3438V12.9062C9 11.5938 10.0664 10.5 11.4062 10.5Z" fill="currentColor"/>
</svg>
