<svg width="32" height="32" viewBox="0 0 32 32" fill="none" xmlns="http://www.w3.org/2000/svg">
<path d="M20.1836 12.4961L16.9023 15.7773L20.1562 19.0312C20.4297 19.2773 20.4297 19.6875 20.1562 19.9336C19.9102 20.207 19.5 20.207 19.2539 19.9336L15.9727 16.6797L12.7188 19.9336C12.4727 20.207 12.0625 20.207 11.8164 19.9336C11.543 19.6875 11.543 19.2773 11.8164 19.0039L15.0703 15.75L11.8164 12.4961C11.543 12.25 11.543 11.8398 11.8164 11.5664C12.0625 11.3203 12.4727 11.3203 12.7461 11.5664L16 14.8477L19.2539 11.5938C19.5 11.3203 19.9102 11.3203 20.1836 11.5938C20.4297 11.8398 20.4297 12.25 20.1836 12.4961Z" fill="currentColor"/>
</svg>
