<svg width="72" height="72" viewBox="0 0 72 72" fill="none" xmlns="http://www.w3.org/2000/svg">
  <defs>
    <linearGradient id="paint0_linear_14_118" x1="0" y1="36" x2="72" y2="36" gradientUnits="userSpaceOnUse">
      <stop stop-color="#397BFF"/>
      <stop offset="1" stop-color="#A97DFF"/>
    </linearGradient>
  </defs>
  <rect x="2" y="2" width="68" height="68" rx="8" fill="#121213"/>
  <rect x="2" y="2" width="68" height="68" rx="8" stroke="url(#paint0_linear_14_118)" stroke-width="4" stroke-linejoin="bevel"/>
  <path
    d="M62.25 28.9345C62.2496 25.7738 60.5443 22.8596 57.7896 21.31L38.3657 10.3822C36.897 9.55619 35.103 9.5562 33.6343 10.3822L14.2104 21.31C11.4557 22.8596 9.75037 25.7738 9.75 28.9345V43.0654C9.75037 46.226 11.4557 49.1402 14.2104 50.6899L33.6343 61.6176C35.103 62.4436 36.897 62.4436 38.3657 61.6176L57.7896 50.6899C60.5443 49.1402 62.2496 46.226 62.25 43.0654V28.9345ZM66 43.0654L65.9707 43.9076C65.6883 48.0938 63.3176 51.8835 59.6279 53.9589L40.2041 64.8842L39.7085 65.143C37.1978 66.3477 34.2432 66.2608 31.7959 64.8842L12.3721 53.9589C8.68244 51.8835 6.31167 48.0938 6.0293 43.9076L6 43.0654V28.9345C6.00035 24.701 8.14115 20.7761 11.6519 18.478L12.3721 18.0409L31.7959 7.11564C34.4062 5.64732 37.5938 5.64732 40.2041 7.11564L59.6279 18.0409C63.5636 20.2548 65.9996 24.419 66 28.9345V43.0654Z"
    fill="#121213"
  />
  <path
    d="M14.75 31.0001C14.75 26.8579 18.1079 23.5001 22.25 23.5001H49.75C53.8921 23.5001 57.25 26.8579 57.25 31.0001V41.0001C57.25 45.1422 53.8921 48.5001 49.75 48.5001H22.25C18.1079 48.5001 14.75 45.1422 14.75 41.0001V31.0001Z"
    fill="#121213"
  />
  <path
    fill-rule="evenodd"
    clip-rule="evenodd"
    d="M26.8331 28.8123C27.6613 28.8123 28.4184 29.2807 28.7892 30.0212L33.7892 40.0212C34.329 41.1014 33.8923 42.4152 32.8126 42.9558C31.7324 43.4959 30.4187 43.0589 29.878 41.9792L26.8331 35.8904L23.7892 41.9792C23.2486 43.0589 21.9347 43.4957 20.8546 42.9558C19.7747 42.4152 19.338 41.1015 19.878 40.0212L24.878 30.0212C25.2487 29.2808 26.005 28.8123 26.8331 28.8123ZM45.1671 28.8123C45.9951 28.8124 46.7515 29.2809 47.1222 30.0212L52.1222 40.0212C52.6621 41.1015 52.2254 42.4152 51.1456 42.9558C50.0654 43.4958 48.7517 43.0589 48.211 41.9792L45.1671 35.8904L42.1222 41.9792C41.5815 43.0589 40.2678 43.4958 39.1876 42.9558C38.1078 42.4153 37.6711 41.1015 38.211 40.0212L43.211 30.0212C43.5817 29.2807 44.3389 28.8123 45.1671 28.8123Z"
    fill="white"
  />
</svg>
